<svg xmlns="http://www.w3.org/2000/svg" viewBox="0 0 1280 720" width="1280" height="720">
  <defs>
    <linearGradient id="bg_grad" x1="0" y1="0" x2="1" y2="1">
      <stop offset="0%" stop-color="#0F2142" />
      <stop offset="100%" stop-color="#1B3A6B" />
    </linearGradient>
    <linearGradient id="gold_line" x1="0" y1="0" x2="1" y2="0">
      <stop offset="0%" stop-color="#D4A017" />
      <stop offset="100%" stop-color="#F0C040" />
    </linearGradient>
  </defs>

  
  <rect width="1280" height="720" fill="url(#bg_grad)" />

  
  <circle cx="1150" cy="80" r="340" fill="#FFFFFF" fill-opacity="0.03" />
  <circle cx="1150" cy="80" r="240" fill="#FFFFFF" fill-opacity="0.03" />
  <circle cx="1150" cy="80" r="140" fill="#FFFFFF" fill-opacity="0.04" />

  
  <rect x="0" y="0" width="6" height="720" fill="#D4A017" />

  
  <rect x="6" y="0" width="1274" height="3" fill="#D4A017" fill-opacity="0.5" />

  
  <rect x="6" y="717" width="1274" height="3" fill="#D4A017" fill-opacity="0.5" />

  
  <path fill="#D4A017" d="M44,105 H276 A4,4 0 0 1 280,109 V131 A4,4 0 0 1 276,135 H44 A4,4 0 0 1 40,131 V109 A4,4 0 0 1 44,105 Z" />
  <text x="160" y="125" text-anchor="middle" font-family="Inter, Helvetica Neue, Arial, sans-serif" font-size="12" font-weight="700" fill="#0F2142">CONFIDENTIAL  |  TAX PLANNING</text>

  
  <text x="40" y="215" font-family="Inter, Helvetica Neue, Arial, sans-serif" font-size="50" font-weight="800" fill="#FFFFFF">ANALISIS PAJAK &amp;</text>
  <text x="40" y="273" font-family="Inter, Helvetica Neue, Arial, sans-serif" font-size="50" font-weight="800" fill="#FFFFFF">TAX MANAGEMENT</text>

  
  <rect x="40" y="288" width="520" height="4" fill="url(#gold_line)" />

  
  <text x="40" y="328" font-family="Inter, Helvetica Neue, Arial, sans-serif" font-size="22" font-weight="500" fill="#A8C4E8">Bisnis SPPG – Program Makan Bergizi Gratis</text>
  <text x="40" y="358" font-family="Inter, Helvetica Neue, Arial, sans-serif" font-size="14" fill="#6A9FC0">Inventaris Kewajiban Pajak  •  Compliance Calendar  •  Tax Optimization Strategy</text>

  
  <line x1="40" y1="390" x2="640" y2="390" stroke="#2C5282" stroke-width="1" />

  
  <text x="40" y="418" font-family="Inter, Helvetica Neue, Arial, sans-serif" font-size="12" fill="#6A9FC0">Sudut Pandang</text>
  <text x="40" y="438" font-family="Inter, Helvetica Neue, Arial, sans-serif" font-size="14" font-weight="600" fill="#FFFFFF">CFO / Tax Manager / Investment Analyst</text>

  
  <text x="40" y="468" font-family="Inter, Helvetica Neue, Arial, sans-serif" font-size="12" fill="#6A9FC0">Omzet Tahunan</text>
  <text x="40" y="488" font-family="Inter, Helvetica Neue, Arial, sans-serif" font-size="14" font-weight="700" fill="#D4A017">Rp 14,08 Miliar  (3.000 porsi × 313 hari × Rp 15.000)</text>

  <text x="380" y="468" font-family="Inter, Helvetica Neue, Arial, sans-serif" font-size="12" fill="#6A9FC0">Tahun Pajak</text>
  <text x="380" y="488" font-family="Inter, Helvetica Neue, Arial, sans-serif" font-size="14" font-weight="600" fill="#FFFFFF">2026</text>

  
  <text x="40" y="518" font-family="Inter, Helvetica Neue, Arial, sans-serif" font-size="12" fill="#6A9FC0">CAPEX</text>
  <text x="40" y="538" font-family="Inter, Helvetica Neue, Arial, sans-serif" font-size="14" font-weight="600" fill="#FFFFFF">Rp 3,5 Miliar</text>

  <text x="380" y="518" font-family="Inter, Helvetica Neue, Arial, sans-serif" font-size="12" fill="#6A9FC0">Karyawan</text>
  <text x="380" y="538" font-family="Inter, Helvetica Neue, Arial, sans-serif" font-size="14" font-weight="600" fill="#FFFFFF">47 Orang</text>

  
  <text x="40" y="590" font-family="Inter, Helvetica Neue, Arial, sans-serif" font-size="12" fill="#4A6A8A">Tanggal Penyusunan: 20 Mei 2026  |  Cut-off Regulasi: 19 Mei 2026</text>

  
  
  <path fill="#FFFFFF" fill-opacity="0.07" stroke="#2C5282" stroke-width="1" d="M718,170 H962 A8,8 0 0 1 970,178 V287 A8,8 0 0 1 962,295 H718 A8,8 0 0 1 710,287 V178 A8,8 0 0 1 718,170 Z" />
  <text x="840" y="208" text-anchor="middle" font-family="Inter, Helvetica Neue, Arial, sans-serif" font-size="12" fill="#6A9FC0">CASH EFFECTIVE TAX RATE</text>
  <text x="840" y="265" text-anchor="middle" font-family="Inter, Helvetica Neue, Arial, sans-serif" font-size="44" font-weight="800" fill="#D4A017">52,2%</text>
  <text x="840" y="285" text-anchor="middle" font-family="Inter, Helvetica Neue, Arial, sans-serif" font-size="11" fill="#4A6A8A">vs 22% Statutory</text>

  
  <path fill="#FFFFFF" fill-opacity="0.07" stroke="#2C5282" stroke-width="1" d="M998,170 H1242 A8,8 0 0 1 1250,178 V287 A8,8 0 0 1 1242,295 H998 A8,8 0 0 1 990,287 V178 A8,8 0 0 1 998,170 Z" />
  <text x="1120" y="208" text-anchor="middle" font-family="Inter, Helvetica Neue, Arial, sans-serif" font-size="12" fill="#6A9FC0">TOTAL CASH TAX / TAHUN</text>
  <text x="1120" y="258" text-anchor="middle" font-family="Inter, Helvetica Neue, Arial, sans-serif" font-size="32" font-weight="800" fill="#FFFFFF">Rp 195–245 jt</text>
  <text x="1120" y="285" text-anchor="middle" font-family="Inter, Helvetica Neue, Arial, sans-serif" font-size="11" fill="#4A6A8A">Belum termasuk PBJT</text>

  
  <path fill="#C53030" fill-opacity="0.15" stroke="#C53030" stroke-width="1" d="M718,315 H962 A8,8 0 0 1 970,323 V432 A8,8 0 0 1 962,440 H718 A8,8 0 0 1 710,432 V323 A8,8 0 0 1 718,315 Z" />
  <path fill="#C53030" d="M712.50,315 H712.50 A2.50,3 0 0 1 715,318 V437 A2.50,3 0 0 1 712.50,440 H712.50 A2.50,3 0 0 1 710,437 V318 A2.50,3 0 0 1 712.50,315 Z" />
  <text x="840" y="352" text-anchor="middle" font-family="Inter, Helvetica Neue, Arial, sans-serif" font-size="12" font-weight="700" fill="#FC8181">RED FLAG: PBJT</text>
  <text x="840" y="400" text-anchor="middle" font-family="Inter, Helvetica Neue, Arial, sans-serif" font-size="34" font-weight="800" fill="#FC8181">Rp 1,4 M</text>
  <text x="840" y="430" text-anchor="middle" font-family="Inter, Helvetica Neue, Arial, sans-serif" font-size="11" fill="#FC8181">Risiko Eksposur / Tahun</text>

  
  <path fill="#FFFFFF" fill-opacity="0.07" stroke="#2C5282" stroke-width="1" d="M998,315 H1242 A8,8 0 0 1 1250,323 V432 A8,8 0 0 1 1242,440 H998 A8,8 0 0 1 990,432 V323 A8,8 0 0 1 998,315 Z" />
  <text x="1120" y="352" text-anchor="middle" font-family="Inter, Helvetica Neue, Arial, sans-serif" font-size="12" fill="#6A9FC0">PPH BADAN STATUTORY</text>
  <text x="1120" y="400" text-anchor="middle" font-family="Inter, Helvetica Neue, Arial, sans-serif" font-size="44" font-weight="800" fill="#FFFFFF">22%</text>
  <text x="1120" y="430" text-anchor="middle" font-family="Inter, Helvetica Neue, Arial, sans-serif" font-size="11" fill="#4A6A8A">Tarif Normal (UU HPP)</text>

  
  <path fill="#FFFFFF" fill-opacity="0.05" d="M716,462 H1244 A6,6 0 0 1 1250,468 V508 A6,6 0 0 1 1244,514 H716 A6,6 0 0 1 710,508 V468 A6,6 0 0 1 716,462 Z" />
  <text x="980" y="483" text-anchor="middle" font-family="Inter, Helvetica Neue, Arial, sans-serif" font-size="11" fill="#6A9FC0">5 KATEGORI PAJAK</text>
  <text x="980" y="503" text-anchor="middle" font-family="Inter, Helvetica Neue, Arial, sans-serif" font-size="13" font-weight="600" fill="#A8C4E8">PPh Badan  •  Withholding Tax  •  PPN/PBJT  •  Pajak Daerah  •  Bea Meterai</text>

  
  <rect x="0" y="693" width="1280" height="27" fill="#0A1929" />
  <text x="640" y="710" text-anchor="middle" font-family="Inter, Helvetica Neue, Arial, sans-serif" font-size="10" fill="#4A6A8A">Analisis Pajak &amp; Tax Management MBG 2026  –  Confidential Tax Planning</text>
  <text x="1250" y="710" text-anchor="end" font-family="Inter, Helvetica Neue, Arial, sans-serif" font-size="10" fill="#D4A017">1 / 15</text>
</svg>