<svg xmlns="http://www.w3.org/2000/svg" viewBox="0 0 1280 720" width="1280" height="720">
  <rect width="1280" height="720" fill="#FFFFFF" />
  <rect x="0" y="0" width="1280" height="65" fill="#1B3A6B" />
  <rect x="0" y="65" width="6" height="628" fill="#D4A017" />

  <text x="40" y="43" font-family="Inter, Helvetica Neue, Arial, sans-serif" font-size="22" font-weight="700" fill="#FFFFFF">PPh PASAL 21 &amp; PPh PASAL 23 – WITHHOLDING TAX</text>
  <text x="1240" y="43" text-anchor="end" font-family="Inter, Helvetica Neue, Arial, sans-serif" font-size="13" fill="#A8C4E8">TER PMK 168/2023</text>

  
  <path fill="#2C5282" d="M24,78 H622 A4,4 0 0 1 626,82 V108 A4,4 0 0 1 622,112 H24 A4,4 0 0 1 20,108 V82 A4,4 0 0 1 24,78 Z" />
  <text x="323" y="100" text-anchor="middle" font-family="Inter, Helvetica Neue, Arial, sans-serif" font-size="14" font-weight="700" fill="#FFFFFF">PPh Pasal 21 – TER (47 Karyawan)</text>

  
  <path fill="#1B3A6B" d="M23,112 H623 A3,3 0 0 1 626,115 V139 A3,3 0 0 1 623,142 H23 A3,3 0 0 1 20,139 V115 A3,3 0 0 1 23,112 Z" />
  <text x="100" y="131" text-anchor="middle" font-family="Inter, Helvetica Neue, Arial, sans-serif" font-size="12" font-weight="600" fill="#FFFFFF">Kategori</text>
  <text x="290" y="131" text-anchor="middle" font-family="Inter, Helvetica Neue, Arial, sans-serif" font-size="12" font-weight="600" fill="#FFFFFF">PTKP Karyawan</text>
  <text x="480" y="131" text-anchor="middle" font-family="Inter, Helvetica Neue, Arial, sans-serif" font-size="12" font-weight="600" fill="#FFFFFF">Range TER Bulanan</text>
  <text x="590" y="131" text-anchor="middle" font-family="Inter, Helvetica Neue, Arial, sans-serif" font-size="12" font-weight="600" fill="#FFFFFF">Jenjang</text>

  <rect x="20" y="142" width="606" height="30" fill="#EEF2F8" />
  <text x="100" y="161" text-anchor="middle" font-family="Inter, Helvetica Neue, Arial, sans-serif" font-size="13" font-weight="700" fill="#1B3A6B">TER A</text>
  <text x="290" y="161" text-anchor="middle" font-family="Inter, Helvetica Neue, Arial, sans-serif" font-size="11" fill="#4A5568">TK/0 (Rp54jt), TK/1 &amp; K/0 (Rp58,5jt)</text>
  <text x="480" y="161" text-anchor="middle" font-family="Inter, Helvetica Neue, Arial, sans-serif" font-size="12" font-weight="600" fill="#1A202C">0% – 34%</text>
  <text x="590" y="161" text-anchor="middle" font-family="Inter, Helvetica Neue, Arial, sans-serif" font-size="11" fill="#4A5568">44 jenjang</text>
  <line x1="20" y1="172" x2="626" y2="172" stroke="#CBD5E0" stroke-width="1" />

  <rect x="20" y="172" width="606" height="30" fill="#FFFFFF" />
  <text x="100" y="191" text-anchor="middle" font-family="Inter, Helvetica Neue, Arial, sans-serif" font-size="13" font-weight="700" fill="#1B3A6B">TER B</text>
  <text x="290" y="191" text-anchor="middle" font-family="Inter, Helvetica Neue, Arial, sans-serif" font-size="11" fill="#4A5568">TK/2 &amp; K/1 (Rp63jt), TK/3 &amp; K/2 (Rp67,5jt)</text>
  <text x="480" y="191" text-anchor="middle" font-family="Inter, Helvetica Neue, Arial, sans-serif" font-size="12" font-weight="600" fill="#1A202C">0% – 34%</text>
  <text x="590" y="191" text-anchor="middle" font-family="Inter, Helvetica Neue, Arial, sans-serif" font-size="11" fill="#4A5568">40 jenjang</text>
  <line x1="20" y1="202" x2="626" y2="202" stroke="#CBD5E0" stroke-width="1" />

  <rect x="20" y="202" width="606" height="30" fill="#EEF2F8" />
  <text x="100" y="221" text-anchor="middle" font-family="Inter, Helvetica Neue, Arial, sans-serif" font-size="13" font-weight="700" fill="#1B3A6B">TER C</text>
  <text x="290" y="221" text-anchor="middle" font-family="Inter, Helvetica Neue, Arial, sans-serif" font-size="11" fill="#4A5568">K/3 (Rp70jt)</text>
  <text x="480" y="221" text-anchor="middle" font-family="Inter, Helvetica Neue, Arial, sans-serif" font-size="12" font-weight="600" fill="#1A202C">0% – 34%</text>
  <text x="590" y="221" text-anchor="middle" font-family="Inter, Helvetica Neue, Arial, sans-serif" font-size="11" fill="#4A5568">41 jenjang</text>

  <path fill="none" stroke="#CBD5E0" stroke-width="1" d="M23,112 H623 A3,3 0 0 1 626,115 V229 A3,3 0 0 1 623,232 H23 A3,3 0 0 1 20,229 V115 A3,3 0 0 1 23,112 Z" />

  
  <text x="20" y="252" font-family="Inter, Helvetica Neue, Arial, sans-serif" font-size="12" font-weight="700" fill="#1B3A6B">Estimasi PPh 21 per Posisi Kunci:</text>
  <path fill="#1B3A6B" d="M22,260 H624 A2,2 0 0 1 626,262 V286 A2,2 0 0 1 624,288 H22 A2,2 0 0 1 20,286 V262 A2,2 0 0 1 22,260 Z" />
  <text x="80" y="278" text-anchor="middle" font-family="Inter, Helvetica Neue, Arial, sans-serif" font-size="11" font-weight="600" fill="#FFFFFF">Posisi</text>
  <text x="210" y="278" text-anchor="middle" font-family="Inter, Helvetica Neue, Arial, sans-serif" font-size="11" font-weight="600" fill="#FFFFFF">Gaji/bln</text>
  <text x="340" y="278" text-anchor="middle" font-family="Inter, Helvetica Neue, Arial, sans-serif" font-size="11" font-weight="600" fill="#FFFFFF">Status</text>
  <text x="450" y="278" text-anchor="middle" font-family="Inter, Helvetica Neue, Arial, sans-serif" font-size="11" font-weight="600" fill="#FFFFFF">TER(%)</text>
  <text x="570" y="278" text-anchor="middle" font-family="Inter, Helvetica Neue, Arial, sans-serif" font-size="11" font-weight="600" fill="#FFFFFF">PPh 21/bln</text>

  
  <rect x="20" y="288" width="606" height="26" fill="#EEF2F8" />
  <text x="80" y="304" text-anchor="middle" font-family="Inter, Helvetica Neue, Arial, sans-serif" font-size="11" fill="#1A202C">Kepala SPPG</text>
  <text x="210" y="304" text-anchor="middle" font-family="Inter, Helvetica Neue, Arial, sans-serif" font-size="11" fill="#1A202C">Rp 12.000.000</text>
  <text x="340" y="304" text-anchor="middle" font-family="Inter, Helvetica Neue, Arial, sans-serif" font-size="11" fill="#1A202C">K/1</text>
  <text x="450" y="304" text-anchor="middle" font-family="Inter, Helvetica Neue, Arial, sans-serif" font-size="11" font-weight="600" fill="#D4A017">1,5%</text>
  <text x="570" y="304" text-anchor="middle" font-family="Inter, Helvetica Neue, Arial, sans-serif" font-size="11" fill="#1A202C">Rp 180.000</text>
  <line x1="20" y1="314" x2="626" y2="314" stroke="#CBD5E0" stroke-width="1" />

  <rect x="20" y="314" width="606" height="26" fill="#FFFFFF" />
  <text x="80" y="330" text-anchor="middle" font-family="Inter, Helvetica Neue, Arial, sans-serif" font-size="11" fill="#1A202C">Akuntan</text>
  <text x="210" y="330" text-anchor="middle" font-family="Inter, Helvetica Neue, Arial, sans-serif" font-size="11" fill="#1A202C">Rp 8.000.000</text>
  <text x="340" y="330" text-anchor="middle" font-family="Inter, Helvetica Neue, Arial, sans-serif" font-size="11" fill="#1A202C">K/0</text>
  <text x="450" y="330" text-anchor="middle" font-family="Inter, Helvetica Neue, Arial, sans-serif" font-size="11" font-weight="600" fill="#D4A017">1,0%</text>
  <text x="570" y="330" text-anchor="middle" font-family="Inter, Helvetica Neue, Arial, sans-serif" font-size="11" fill="#1A202C">Rp 80.000</text>
  <line x1="20" y1="340" x2="626" y2="340" stroke="#CBD5E0" stroke-width="1" />

  <rect x="20" y="340" width="606" height="26" fill="#EEF2F8" />
  <text x="80" y="356" text-anchor="middle" font-family="Inter, Helvetica Neue, Arial, sans-serif" font-size="11" fill="#1A202C">Ahli Gizi</text>
  <text x="210" y="356" text-anchor="middle" font-family="Inter, Helvetica Neue, Arial, sans-serif" font-size="11" fill="#1A202C">Rp 8.000.000</text>
  <text x="340" y="356" text-anchor="middle" font-family="Inter, Helvetica Neue, Arial, sans-serif" font-size="11" fill="#1A202C">TK/0</text>
  <text x="450" y="356" text-anchor="middle" font-family="Inter, Helvetica Neue, Arial, sans-serif" font-size="11" font-weight="600" fill="#D4A017">1,0%</text>
  <text x="570" y="356" text-anchor="middle" font-family="Inter, Helvetica Neue, Arial, sans-serif" font-size="11" fill="#1A202C">Rp 80.000</text>
  <line x1="20" y1="366" x2="626" y2="366" stroke="#CBD5E0" stroke-width="1" />

  <rect x="20" y="366" width="606" height="26" fill="#FFFFFF" />
  <text x="80" y="382" text-anchor="middle" font-family="Inter, Helvetica Neue, Arial, sans-serif" font-size="11" fill="#1A202C">Kepala Dapur</text>
  <text x="210" y="382" text-anchor="middle" font-family="Inter, Helvetica Neue, Arial, sans-serif" font-size="11" fill="#1A202C">Rp 7.000.000</text>
  <text x="340" y="382" text-anchor="middle" font-family="Inter, Helvetica Neue, Arial, sans-serif" font-size="11" fill="#1A202C">K/1</text>
  <text x="450" y="382" text-anchor="middle" font-family="Inter, Helvetica Neue, Arial, sans-serif" font-size="11" fill="#718096">0,5%</text>
  <text x="570" y="382" text-anchor="middle" font-family="Inter, Helvetica Neue, Arial, sans-serif" font-size="11" fill="#1A202C">Rp 35.000</text>
  <line x1="20" y1="392" x2="626" y2="392" stroke="#CBD5E0" stroke-width="1" />

  <rect x="20" y="392" width="606" height="26" fill="#EEF2F8" />
  <text x="80" y="408" text-anchor="middle" font-family="Inter, Helvetica Neue, Arial, sans-serif" font-size="11" fill="#718096">39 Karyawan Lain</text>
  <text x="210" y="408" text-anchor="middle" font-family="Inter, Helvetica Neue, Arial, sans-serif" font-size="11" fill="#718096">Rp 3–5,5 juta</text>
  <text x="340" y="408" text-anchor="middle" font-family="Inter, Helvetica Neue, Arial, sans-serif" font-size="11" fill="#718096">TK/0, K/0</text>
  <text x="450" y="408" text-anchor="middle" font-family="Inter, Helvetica Neue, Arial, sans-serif" font-size="11" fill="#718096">0%</text>
  <text x="570" y="408" text-anchor="middle" font-family="Inter, Helvetica Neue, Arial, sans-serif" font-size="11" fill="#718096">Rp 0</text>

  
  <rect x="20" y="418" width="606" height="28" fill="#1B3A6B" />
  <text x="80" y="436" text-anchor="middle" font-family="Inter, Helvetica Neue, Arial, sans-serif" font-size="11" font-weight="700" fill="#FFFFFF">TOTAL (47 org)</text>
  <text x="570" y="436" text-anchor="middle" font-family="Inter, Helvetica Neue, Arial, sans-serif" font-size="12" font-weight="700" fill="#D4A017">~Rp 5,8 juta/thn</text>
  <path fill="none" stroke="#CBD5E0" stroke-width="1" d="M22,260 H624 A2,2 0 0 1 626,262 V444 A2,2 0 0 1 624,446 H22 A2,2 0 0 1 20,444 V262 A2,2 0 0 1 22,260 Z" />

  
  <path fill="#FFFBEB" stroke="#D4A017" stroke-width="1" d="M24,460 H622 A4,4 0 0 1 626,464 V516 A4,4 0 0 1 622,520 H24 A4,4 0 0 1 20,516 V464 A4,4 0 0 1 24,460 Z" />
  <text x="35" y="479" font-family="Inter, Helvetica Neue, Arial, sans-serif" font-size="12" font-weight="700" fill="#D4A017">Strategi Gross-Up (untuk posisi kunci):</text>
  <text x="35" y="497" font-family="Inter, Helvetica Neue, Arial, sans-serif" font-size="11" fill="#4A5568">Gross-up gaji Kepala SPPG, Akuntan, Ahli Gizi → deductible naik → tax saving ~22% × selisih</text>
  <text x="35" y="513" font-family="Inter, Helvetica Neue, Arial, sans-serif" font-size="11" fill="#4A5568">THP karyawan utuh (tidak terpotong) → retention lebih baik.</text>

  
  <path fill="#EEF2F8" stroke="#CBD5E0" stroke-width="1" d="M24,532 H622 A4,4 0 0 1 626,536 V580 A4,4 0 0 1 622,584 H24 A4,4 0 0 1 20,580 V536 A4,4 0 0 1 24,532 Z" />
  <text x="35" y="551" font-family="Inter, Helvetica Neue, Arial, sans-serif" font-size="12" font-weight="700" fill="#1B3A6B">Rekonsiliasi Desember (Pasal 17):</text>
  <text x="35" y="569" font-family="Inter, Helvetica Neue, Arial, sans-serif" font-size="11" fill="#4A5568">Jan–Nov: potong pakai TER bulanan  |  Desember: rekonsiliasi ke tarif progresif aktual</text>
  <text x="35" y="581" font-family="Inter, Helvetica Neue, Arial, sans-serif" font-size="11" fill="#4A5568">NIK = NPWP (sejak 2024). Bukti potong via e-Bupot Coretax (PER-11/PJ/2025).</text>

  
  <path fill="#2C5282" d="M654,78 H1256 A4,4 0 0 1 1260,82 V108 A4,4 0 0 1 1256,112 H654 A4,4 0 0 1 650,108 V82 A4,4 0 0 1 654,78 Z" />
  <text x="955" y="100" text-anchor="middle" font-family="Inter, Helvetica Neue, Arial, sans-serif" font-size="14" font-weight="700" fill="#FFFFFF">PPh Pasal 23 – Withholding Jasa &amp; Sewa</text>

  
  <path fill="#1B3A6B" d="M652,112 H1258 A2,2 0 0 1 1260,114 V138 A2,2 0 0 1 1258,140 H652 A2,2 0 0 1 650,138 V114 A2,2 0 0 1 652,112 Z" />
  <text x="750" y="130" text-anchor="middle" font-family="Inter, Helvetica Neue, Arial, sans-serif" font-size="11" font-weight="600" fill="#FFFFFF">Skenario</text>
  <text x="900" y="130" text-anchor="middle" font-family="Inter, Helvetica Neue, Arial, sans-serif" font-size="11" font-weight="600" fill="#FFFFFF">SPPG Sebagai</text>
  <text x="995" y="130" text-anchor="middle" font-family="Inter, Helvetica Neue, Arial, sans-serif" font-size="11" font-weight="600" fill="#FFFFFF">Tarif</text>
  <text x="1165" y="130" text-anchor="middle" font-family="Inter, Helvetica Neue, Arial, sans-serif" font-size="11" font-weight="600" fill="#FFFFFF">Estimasi/Tahun</text>

  
  <rect x="650" y="140" width="610" height="30" fill="#FFFBEB" />
  <text x="665" y="158" font-family="Inter, Helvetica Neue, Arial, sans-serif" font-size="11" font-weight="600" fill="#D4A017">Yayasan bayar SPPG (jasa katering)</text>
  <text x="900" y="158" text-anchor="middle" font-family="Inter, Helvetica Neue, Arial, sans-serif" font-size="11" fill="#D4A017">DIPOTONG</text>
  <text x="995" y="158" text-anchor="middle" font-family="Inter, Helvetica Neue, Arial, sans-serif" font-size="12" font-weight="700" fill="#D4A017">2%</text>
  <text x="1165" y="158" text-anchor="middle" font-family="Inter, Helvetica Neue, Arial, sans-serif" font-size="12" font-weight="700" fill="#D4A017">Rp 281.700.000</text>
  <line x1="650" y1="170" x2="1260" y2="170" stroke="#CBD5E0" stroke-width="1" />

  <rect x="650" y="170" width="610" height="28" fill="#EEF2F8" />
  <text x="665" y="187" font-family="Inter, Helvetica Neue, Arial, sans-serif" font-size="11" fill="#1A202C">SPPG bayar sewa kendaraan operasional</text>
  <text x="900" y="187" text-anchor="middle" font-family="Inter, Helvetica Neue, Arial, sans-serif" font-size="11" fill="#4A5568">Pemotong</text>
  <text x="995" y="187" text-anchor="middle" font-family="Inter, Helvetica Neue, Arial, sans-serif" font-size="11" fill="#1A202C">2%</text>
  <text x="1165" y="187" text-anchor="middle" font-family="Inter, Helvetica Neue, Arial, sans-serif" font-size="11" fill="#1A202C">Rp 480.000</text>
  <line x1="650" y1="198" x2="1260" y2="198" stroke="#CBD5E0" stroke-width="1" />

  <rect x="650" y="198" width="610" height="28" fill="#FFFFFF" />
  <text x="665" y="215" font-family="Inter, Helvetica Neue, Arial, sans-serif" font-size="11" fill="#1A202C">SPPG bayar konsultan akunting (WP Badan)</text>
  <text x="900" y="215" text-anchor="middle" font-family="Inter, Helvetica Neue, Arial, sans-serif" font-size="11" fill="#4A5568">Pemotong</text>
  <text x="995" y="215" text-anchor="middle" font-family="Inter, Helvetica Neue, Arial, sans-serif" font-size="11" fill="#1A202C">2%</text>
  <text x="1165" y="215" text-anchor="middle" font-family="Inter, Helvetica Neue, Arial, sans-serif" font-size="11" fill="#1A202C">Rp 240.000</text>
  <line x1="650" y1="226" x2="1260" y2="226" stroke="#CBD5E0" stroke-width="1" />

  <rect x="650" y="226" width="610" height="28" fill="#EEF2F8" />
  <text x="665" y="243" font-family="Inter, Helvetica Neue, Arial, sans-serif" font-size="11" fill="#1A202C">SPPG bayar konsultan halal/ISO</text>
  <text x="900" y="243" text-anchor="middle" font-family="Inter, Helvetica Neue, Arial, sans-serif" font-size="11" fill="#4A5568">Pemotong</text>
  <text x="995" y="243" text-anchor="middle" font-family="Inter, Helvetica Neue, Arial, sans-serif" font-size="11" fill="#1A202C">2%</text>
  <text x="1165" y="243" text-anchor="middle" font-family="Inter, Helvetica Neue, Arial, sans-serif" font-size="11" fill="#1A202C">Rp 300.000</text>
  <line x1="650" y1="254" x2="1260" y2="254" stroke="#CBD5E0" stroke-width="1" />

  <rect x="650" y="254" width="610" height="28" fill="#FFFFFF" />
  <text x="665" y="271" font-family="Inter, Helvetica Neue, Arial, sans-serif" font-size="11" fill="#1A202C">SPPG bayar maintenance peralatan vendor</text>
  <text x="900" y="271" text-anchor="middle" font-family="Inter, Helvetica Neue, Arial, sans-serif" font-size="11" fill="#4A5568">Pemotong</text>
  <text x="995" y="271" text-anchor="middle" font-family="Inter, Helvetica Neue, Arial, sans-serif" font-size="11" fill="#1A202C">2%</text>
  <text x="1165" y="271" text-anchor="middle" font-family="Inter, Helvetica Neue, Arial, sans-serif" font-size="11" fill="#1A202C">Rp 700.000</text>

  <path fill="none" stroke="#CBD5E0" stroke-width="1" d="M652,112 H1258 A2,2 0 0 1 1260,114 V280 A2,2 0 0 1 1258,282 H652 A2,2 0 0 1 650,280 V114 A2,2 0 0 1 652,112 Z" />

  
  <line x1="856" y1="112" x2="856" y2="282" stroke="#CBD5E0" stroke-width="1" />
  <line x1="948" y1="112" x2="948" y2="282" stroke="#CBD5E0" stroke-width="1" />
  <line x1="1078" y1="112" x2="1078" y2="282" stroke="#CBD5E0" stroke-width="1" />

  
  <path fill="#FFF5F5" stroke="#C53030" stroke-width="1" d="M654,295 H1256 A4,4 0 0 1 1260,299 V343 A4,4 0 0 1 1256,347 H654 A4,4 0 0 1 650,343 V299 A4,4 0 0 1 654,295 Z" />
  <text x="665" y="316" font-family="Inter, Helvetica Neue, Arial, sans-serif" font-size="12" font-weight="700" fill="#C53030">Aturan NPWP Supplier:</text>
  <text x="665" y="334" font-family="Inter, Helvetica Neue, Arial, sans-serif" font-size="12" fill="#4A5568">Supplier BER-NPWP → tarif 2%  |  Supplier TIDAK ber-NPWP → tarif 4% (double!)</text>
  <text x="665" y="338" font-family="Inter, Helvetica Neue, Arial, sans-serif" font-size="10" fill="#C53030">Saving: validasi NPWP semua supplier → hemat ~Rp 12 juta/tahun (selisih 2% × total DPP)</text>

  
  <path fill="#2C5282" d="M654,360 H1256 A4,4 0 0 1 1260,364 V390 A4,4 0 0 1 1256,394 H654 A4,4 0 0 1 650,390 V364 A4,4 0 0 1 654,360 Z" />
  <text x="955" y="382" text-anchor="middle" font-family="Inter, Helvetica Neue, Arial, sans-serif" font-size="13" font-weight="700" fill="#FFFFFF">Alur Withholding – PPh 23 dari Yayasan ke SPPG</text>

  
  <path fill="#1B3A6B" d="M665,406 H765 A5,5 0 0 1 770,411 V451 A5,5 0 0 1 765,456 H665 A5,5 0 0 1 660,451 V411 A5,5 0 0 1 665,406 Z" />
  <text x="715" y="428" text-anchor="middle" font-family="Inter, Helvetica Neue, Arial, sans-serif" font-size="11" font-weight="600" fill="#FFFFFF">APBN/BGN</text>
  <text x="715" y="446" text-anchor="middle" font-family="Inter, Helvetica Neue, Arial, sans-serif" font-size="10" fill="#A8C4E8">Dana MBG</text>

  <text x="778" y="432" font-family="Inter, Helvetica Neue, Arial, sans-serif" font-size="20" fill="#CBD5E0">→</text>

  <path fill="#2C5282" d="M805,406 H925 A5,5 0 0 1 930,411 V451 A5,5 0 0 1 925,456 H805 A5,5 0 0 1 800,451 V411 A5,5 0 0 1 805,406 Z" />
  <text x="865" y="428" text-anchor="middle" font-family="Inter, Helvetica Neue, Arial, sans-serif" font-size="11" font-weight="600" fill="#FFFFFF">Yayasan Mitra</text>
  <text x="865" y="446" text-anchor="middle" font-family="Inter, Helvetica Neue, Arial, sans-serif" font-size="10" fill="#A8C4E8">Potong PPh 23: 2%</text>

  <text x="937" y="432" font-family="Inter, Helvetica Neue, Arial, sans-serif" font-size="20" fill="#CBD5E0">→</text>

  <path fill="#4A90D9" d="M965,406 H1085 A5,5 0 0 1 1090,411 V451 A5,5 0 0 1 1085,456 H965 A5,5 0 0 1 960,451 V411 A5,5 0 0 1 965,406 Z" />
  <text x="1025" y="428" text-anchor="middle" font-family="Inter, Helvetica Neue, Arial, sans-serif" font-size="11" font-weight="600" fill="#FFFFFF">SPPG Mitra</text>
  <text x="1025" y="446" text-anchor="middle" font-family="Inter, Helvetica Neue, Arial, sans-serif" font-size="10" fill="#FFFFFF">Net: Rp 13,8 M</text>

  <text x="1097" y="432" font-family="Inter, Helvetica Neue, Arial, sans-serif" font-size="20" fill="#CBD5E0">→</text>

  <path fill="#276749" d="M1125,406 H1245 A5,5 0 0 1 1250,411 V451 A5,5 0 0 1 1245,456 H1125 A5,5 0 0 1 1120,451 V411 A5,5 0 0 1 1125,406 Z" />
  <text x="1185" y="428" text-anchor="middle" font-family="Inter, Helvetica Neue, Arial, sans-serif" font-size="11" font-weight="600" fill="#FFFFFF">DJP / SPT</text>
  <text x="1185" y="446" text-anchor="middle" font-family="Inter, Helvetica Neue, Arial, sans-serif" font-size="10" fill="#FFFFFF">Kredit pajak</text>

  
  <text x="715" y="472" text-anchor="middle" font-family="Inter, Helvetica Neue, Arial, sans-serif" font-size="10" fill="#4A5568">~Rp 14,5 M</text>
  <text x="865" y="472" text-anchor="middle" font-family="Inter, Helvetica Neue, Arial, sans-serif" font-size="10" fill="#D4A017">setor Rp 281,7 jt</text>
  <text x="1025" y="472" text-anchor="middle" font-family="Inter, Helvetica Neue, Arial, sans-serif" font-size="10" fill="#4A5568">bukti potong</text>
  <text x="1185" y="472" text-anchor="middle" font-family="Inter, Helvetica Neue, Arial, sans-serif" font-size="10" fill="#4A5568">lebih bayar</text>

  
  <path fill="#EEF2F8" stroke="#CBD5E0" stroke-width="1" d="M654,490 H1256 A4,4 0 0 1 1260,494 V532 A4,4 0 0 1 1256,536 H654 A4,4 0 0 1 650,532 V494 A4,4 0 0 1 654,490 Z" />
  <text x="665" y="510" font-family="Inter, Helvetica Neue, Arial, sans-serif" font-size="12" font-weight="700" fill="#1B3A6B">Sistem Coretax (PMK 81/2024):</text>
  <text x="665" y="528" font-family="Inter, Helvetica Neue, Arial, sans-serif" font-size="11" fill="#4A5568">Yayasan terbit e-Bupot 23 via Coretax  |  SPPG cross-check bukti potong bulanan  |  Real-time matching DJP</text>

  
  <path fill="#EEF2F8" stroke="#CBD5E0" stroke-width="1" d="M654,548 H1256 A4,4 0 0 1 1260,552 V654 A4,4 0 0 1 1256,658 H654 A4,4 0 0 1 650,654 V552 A4,4 0 0 1 654,548 Z" />
  <text x="955" y="570" text-anchor="middle" font-family="Inter, Helvetica Neue, Arial, sans-serif" font-size="13" font-weight="700" fill="#1B3A6B">PPh 23 vs PPh Badan – Gap Analisis</text>

  
  <path fill="#D4A017" d="M693,582 H887 A3,3 0 0 1 890,585 V629 A3,3 0 0 1 887,632 H693 A3,3 0 0 1 690,629 V585 A3,3 0 0 1 693,582 Z" />
  <text x="790" y="605" text-anchor="middle" font-family="Inter, Helvetica Neue, Arial, sans-serif" font-size="11" font-weight="700" fill="#1A202C">PPh 23</text>
  <text x="790" y="622" text-anchor="middle" font-family="Inter, Helvetica Neue, Arial, sans-serif" font-size="11" fill="#1A202C">Rp 281,7 juta</text>

  
  <path fill="#1B3A6B" d="M903,605 H1017 A3,3 0 0 1 1020,608 V629 A3,3 0 0 1 1017,632 H903 A3,3 0 0 1 900,629 V608 A3,3 0 0 1 903,605 Z" />
  <text x="960" y="622" text-anchor="middle" font-family="Inter, Helvetica Neue, Arial, sans-serif" font-size="11" font-weight="700" fill="#FFFFFF">PPh Badan</text>
  <text x="960" y="637" text-anchor="middle" font-family="Inter, Helvetica Neue, Arial, sans-serif" font-size="10" fill="#A8C4E8">Rp 133,5 juta</text>

  
  <text x="1060" y="605" font-family="Inter, Helvetica Neue, Arial, sans-serif" font-size="12" font-weight="700" fill="#C53030">GAP:</text>
  <text x="1060" y="623" font-family="Inter, Helvetica Neue, Arial, sans-serif" font-size="14" font-weight="800" fill="#C53030">Rp 148 jt</text>
  <text x="1060" y="641" font-family="Inter, Helvetica Neue, Arial, sans-serif" font-size="10" fill="#C53030">Lebih bayar</text>

  <rect x="0" y="693" width="1280" height="27" fill="#1B3A6B" />
  <text x="640" y="710" text-anchor="middle" font-family="Inter, Helvetica Neue, Arial, sans-serif" font-size="10" fill="#A8C4E8">Analisis Pajak &amp; Tax Management MBG 2026  –  Confidential Tax Planning</text>
  <text x="1250" y="710" text-anchor="end" font-family="Inter, Helvetica Neue, Arial, sans-serif" font-size="10" fill="#D4A017">8 / 15</text>
</svg>