<svg xmlns="http://www.w3.org/2000/svg" viewBox="0 0 1280 720" width="1280" height="720">
  <rect width="1280" height="720" fill="#FFFFFF" />
  <rect x="0" y="0" width="1280" height="65" fill="#1B3A6B" />
  <rect x="0" y="65" width="6" height="628" fill="#D4A017" />

  <text x="40" y="43" font-family="Inter, Helvetica Neue, Arial, sans-serif" font-size="22" font-weight="700" fill="#FFFFFF">TAX MANAGEMENT – PEMILIHAN STRUKTUR ENTITAS</text>
  <text x="1240" y="43" text-anchor="end" font-family="Inter, Helvetica Neue, Arial, sans-serif" font-size="13" fill="#A8C4E8">Komparasi Tax Treatment</text>

  <text x="20" y="92" font-family="Inter, Helvetica Neue, Arial, sans-serif" font-size="13" fill="#4A5568">Pemilihan struktur entitas SPPG memiliki konsekuensi pajak yang berbeda signifikan pada tarif efektif, distribusi laba, dan tax shield.</text>

  
  <path fill="#2C5282" d="M24,104 H1256 A4,4 0 0 1 1260,108 V134 A4,4 0 0 1 1256,138 H24 A4,4 0 0 1 20,134 V108 A4,4 0 0 1 24,104 Z" />
  <text x="100" y="126" text-anchor="middle" font-family="Inter, Helvetica Neue, Arial, sans-serif" font-size="12" font-weight="700" fill="#FFFFFF">Struktur</text>
  <text x="300" y="126" text-anchor="middle" font-family="Inter, Helvetica Neue, Arial, sans-serif" font-size="12" font-weight="700" fill="#FFFFFF">PPh Badan</text>
  <text x="540" y="126" text-anchor="middle" font-family="Inter, Helvetica Neue, Arial, sans-serif" font-size="12" font-weight="700" fill="#FFFFFF">Distribusi ke Pemilik</text>
  <text x="830" y="126" text-anchor="middle" font-family="Inter, Helvetica Neue, Arial, sans-serif" font-size="12" font-weight="700" fill="#FFFFFF">Total Tax</text>
  <text x="1050" y="126" text-anchor="middle" font-family="Inter, Helvetica Neue, Arial, sans-serif" font-size="12" font-weight="700" fill="#FFFFFF">Catatan</text>
  <line x1="200" y1="104" x2="200" y2="374" stroke="#FFFFFF" stroke-width="1" stroke-opacity="0.3" />
  <line x1="400" y1="104" x2="400" y2="374" stroke="#FFFFFF" stroke-width="1" stroke-opacity="0.3" />
  <line x1="680" y1="104" x2="680" y2="374" stroke="#FFFFFF" stroke-width="1" stroke-opacity="0.3" />
  <line x1="980" y1="104" x2="980" y2="374" stroke="#FFFFFF" stroke-width="1" stroke-opacity="0.3" />

  
  <rect x="20" y="138" width="1240" height="38" fill="#EEF2F8" />
  <text x="100" y="162" text-anchor="middle" font-family="Inter, Helvetica Neue, Arial, sans-serif" font-size="13" font-weight="700" fill="#1B3A6B">PT</text>
  <text x="300" y="162" text-anchor="middle" font-family="Inter, Helvetica Neue, Arial, sans-serif" font-size="13" font-weight="600" fill="#1A202C">22%</text>
  <text x="540" y="162" text-anchor="middle" font-family="Inter, Helvetica Neue, Arial, sans-serif" font-size="12" fill="#1A202C">Dividen: 10% Final</text>
  <text x="830" y="162" text-anchor="middle" font-family="Inter, Helvetica Neue, Arial, sans-serif" font-size="13" font-weight="700" fill="#C53030">29,8%</text>
  <text x="1050" y="162" text-anchor="middle" font-family="Inter, Helvetica Neue, Arial, sans-serif" font-size="11" fill="#4A5568">Standar, paling fleksibel</text>
  <line x1="20" y1="176" x2="1260" y2="176" stroke="#CBD5E0" stroke-width="1" />

  
  <rect x="20" y="176" width="1240" height="38" fill="#FFFBEB" />
  <rect x="20" y="176" width="4" height="38" fill="#D4A017" />
  <text x="100" y="200" text-anchor="middle" font-family="Inter, Helvetica Neue, Arial, sans-serif" font-size="13" font-weight="700" fill="#D4A017">PT (UU HPP)</text>
  <text x="300" y="200" text-anchor="middle" font-family="Inter, Helvetica Neue, Arial, sans-serif" font-size="13" font-weight="600" fill="#1A202C">22%</text>
  <text x="540" y="200" text-anchor="middle" font-family="Inter, Helvetica Neue, Arial, sans-serif" font-size="12" fill="#276749">Dividen exempt jika reinvested</text>
  <text x="830" y="200" text-anchor="middle" font-family="Inter, Helvetica Neue, Arial, sans-serif" font-size="13" font-weight="800" fill="#276749">22%</text>
  <text x="1050" y="200" text-anchor="middle" font-family="Inter, Helvetica Neue, Arial, sans-serif" font-size="11" fill="#D4A017">Reinvest 3 thn (PMK 18/2021)</text>
  <line x1="20" y1="214" x2="1260" y2="214" stroke="#CBD5E0" stroke-width="1" />

  
  <rect x="20" y="214" width="1240" height="38" fill="#EEF2F8" />
  <text x="100" y="238" text-anchor="middle" font-family="Inter, Helvetica Neue, Arial, sans-serif" font-size="13" font-weight="700" fill="#1B3A6B">CV</text>
  <text x="300" y="238" text-anchor="middle" font-family="Inter, Helvetica Neue, Arial, sans-serif" font-size="13" font-weight="600" fill="#1A202C">22%</text>
  <text x="540" y="238" text-anchor="middle" font-family="Inter, Helvetica Neue, Arial, sans-serif" font-size="12" fill="#276749">Bukan objek pajak</text>
  <text x="830" y="238" text-anchor="middle" font-family="Inter, Helvetica Neue, Arial, sans-serif" font-size="13" font-weight="700" fill="#276749">22%</text>
  <text x="1050" y="238" text-anchor="middle" font-family="Inter, Helvetica Neue, Arial, sans-serif" font-size="11" fill="#4A5568">Mirip PT, lebih simple</text>
  <line x1="20" y1="252" x2="1260" y2="252" stroke="#CBD5E0" stroke-width="1" />

  
  <rect x="20" y="252" width="1240" height="38" fill="#FFFFFF" />
  <text x="100" y="276" text-anchor="middle" font-family="Inter, Helvetica Neue, Arial, sans-serif" font-size="13" font-weight="700" fill="#1B3A6B">Koperasi</text>
  <text x="300" y="276" text-anchor="middle" font-family="Inter, Helvetica Neue, Arial, sans-serif" font-size="13" font-weight="600" fill="#1A202C">22%</text>
  <text x="540" y="276" text-anchor="middle" font-family="Inter, Helvetica Neue, Arial, sans-serif" font-size="12" fill="#1A202C">SHU anggota: 10% Final</text>
  <text x="830" y="276" text-anchor="middle" font-family="Inter, Helvetica Neue, Arial, sans-serif" font-size="13" font-weight="700" fill="#C53030">29,8%</text>
  <text x="1050" y="276" text-anchor="middle" font-family="Inter, Helvetica Neue, Arial, sans-serif" font-size="11" fill="#4A5568">PP 25/2009</text>
  <line x1="20" y1="290" x2="1260" y2="290" stroke="#CBD5E0" stroke-width="1" />

  
  <rect x="20" y="290" width="1240" height="38" fill="#EEF2F8" />
  <text x="100" y="314" text-anchor="middle" font-family="Inter, Helvetica Neue, Arial, sans-serif" font-size="13" font-weight="700" fill="#1B3A6B">BUMDes</text>
  <text x="300" y="314" text-anchor="middle" font-family="Inter, Helvetica Neue, Arial, sans-serif" font-size="13" font-weight="600" fill="#1A202C">22% / exempt</text>
  <text x="540" y="314" text-anchor="middle" font-family="Inter, Helvetica Neue, Arial, sans-serif" font-size="12" fill="#1A202C">SHU ke desa</text>
  <text x="830" y="314" text-anchor="middle" font-family="Inter, Helvetica Neue, Arial, sans-serif" font-size="13" font-weight="700" fill="#276749">0–22%</text>
  <text x="1050" y="314" text-anchor="middle" font-family="Inter, Helvetica Neue, Arial, sans-serif" font-size="11" fill="#4A5568">Tergantung struktur</text>
  <line x1="20" y1="328" x2="1260" y2="328" stroke="#CBD5E0" stroke-width="1" />

  
  <rect x="20" y="328" width="1240" height="38" fill="#FFFFFF" />
  <text x="100" y="352" text-anchor="middle" font-family="Inter, Helvetica Neue, Arial, sans-serif" font-size="13" font-weight="700" fill="#1B3A6B">Yayasan</text>
  <text x="300" y="352" text-anchor="middle" font-family="Inter, Helvetica Neue, Arial, sans-serif" font-size="13" font-weight="600" fill="#1A202C">22% atas sisa lebih</text>
  <text x="540" y="352" text-anchor="middle" font-family="Inter, Helvetica Neue, Arial, sans-serif" font-size="12" fill="#4A5568">Tidak ada distribusi</text>
  <text x="830" y="352" text-anchor="middle" font-family="Inter, Helvetica Neue, Arial, sans-serif" font-size="13" font-weight="700" fill="#276749">0–22%</text>
  <text x="1050" y="352" text-anchor="middle" font-family="Inter, Helvetica Neue, Arial, sans-serif" font-size="11" fill="#4A5568">Sisa lebih exempt reinvest (KMK 117)</text>

  <path fill="none" stroke="#CBD5E0" stroke-width="1" d="M24,104 H1256 A4,4 0 0 1 1260,108 V362 A4,4 0 0 1 1256,366 H24 A4,4 0 0 1 20,362 V108 A4,4 0 0 1 24,104 Z" />
  <line x1="200" y1="138" x2="200" y2="366" stroke="#CBD5E0" stroke-width="1" />
  <line x1="400" y1="138" x2="400" y2="366" stroke="#CBD5E0" stroke-width="1" />
  <line x1="680" y1="138" x2="680" y2="366" stroke="#CBD5E0" stroke-width="1" />
  <line x1="980" y1="138" x2="980" y2="366" stroke="#CBD5E0" stroke-width="1" />

  
  <path fill="#2C5282" d="M24,380 H614 A4,4 0 0 1 618,384 V410 A4,4 0 0 1 614,414 H24 A4,4 0 0 1 20,410 V384 A4,4 0 0 1 24,380 Z" />
  <text x="319" y="402" text-anchor="middle" font-family="Inter, Helvetica Neue, Arial, sans-serif" font-size="13" font-weight="700" fill="#FFFFFF">Rekomendasi per Profil Investor</text>

  
  <rect x="20" y="414" width="598" height="28" fill="#EEF2F8" />
  <text x="30" y="431" font-family="Inter, Helvetica Neue, Arial, sans-serif" font-size="12" fill="#4A5568">Investor tunggal, 1 SPPG</text>
  <text x="360" y="431" font-family="Inter, Helvetica Neue, Arial, sans-serif" font-size="12" font-weight="600" fill="#1B3A6B">CV</text>
  <text x="420" y="431" font-family="Inter, Helvetica Neue, Arial, sans-serif" font-size="11" fill="#4A5568">Simple, tarif sama</text>
  <line x1="20" y1="442" x2="618" y2="442" stroke="#CBD5E0" stroke-width="1" />

  <rect x="20" y="442" width="598" height="28" fill="#FFFFFF" />
  <text x="30" y="459" font-family="Inter, Helvetica Neue, Arial, sans-serif" font-size="12" fill="#4A5568">Investor multi, 2–5 SPPG</text>
  <text x="360" y="459" font-family="Inter, Helvetica Neue, Arial, sans-serif" font-size="12" font-weight="600" fill="#D4A017">PT + UU HPP</text>
  <text x="450" y="459" font-family="Inter, Helvetica Neue, Arial, sans-serif" font-size="11" fill="#4A5568">Dividen reinvest exempt</text>
  <line x1="20" y1="470" x2="618" y2="470" stroke="#CBD5E0" stroke-width="1" />

  <rect x="20" y="470" width="598" height="28" fill="#EEF2F8" />
  <text x="30" y="487" font-family="Inter, Helvetica Neue, Arial, sans-serif" font-size="12" fill="#4A5568">Konsorsium komunitas lokal</text>
  <text x="360" y="487" font-family="Inter, Helvetica Neue, Arial, sans-serif" font-size="12" font-weight="600" fill="#1B3A6B">Koperasi</text>
  <text x="430" y="487" font-family="Inter, Helvetica Neue, Arial, sans-serif" font-size="11" fill="#4A5568">Akses pendanaan koperasi</text>
  <line x1="20" y1="498" x2="618" y2="498" stroke="#CBD5E0" stroke-width="1" />

  <rect x="20" y="498" width="598" height="28" fill="#FFFFFF" />
  <text x="30" y="515" font-family="Inter, Helvetica Neue, Arial, sans-serif" font-size="12" fill="#4A5568">Investor besar 5+ SPPG</text>
  <text x="360" y="515" font-family="Inter, Helvetica Neue, Arial, sans-serif" font-size="12" font-weight="600" fill="#1B3A6B">PT Holding + Anak PT</text>
  <text x="490" y="515" font-family="Inter, Helvetica Neue, Arial, sans-serif" font-size="11" fill="#4A5568">Ring-fence risiko</text>

  <path fill="none" stroke="#CBD5E0" stroke-width="1" d="M24,380 H614 A4,4 0 0 1 618,384 V522 A4,4 0 0 1 614,526 H24 A4,4 0 0 1 20,522 V384 A4,4 0 0 1 24,380 Z" />

  
  <path fill="#1B3A6B" d="M646,380 H1256 A4,4 0 0 1 1260,384 V410 A4,4 0 0 1 1256,414 H646 A4,4 0 0 1 642,410 V384 A4,4 0 0 1 646,380 Z" />
  <text x="951" y="402" text-anchor="middle" font-family="Inter, Helvetica Neue, Arial, sans-serif" font-size="13" font-weight="700" fill="#FFFFFF">Struktur Holding untuk 3+ SPPG (Tax-Efficient)</text>

  
  <path fill="#EEF2F8" stroke="#CBD5E0" stroke-width="1" d="M646,424 H1256 A4,4 0 0 1 1260,428 V516 A4,4 0 0 1 1256,520 H646 A4,4 0 0 1 642,516 V428 A4,4 0 0 1 646,424 Z" />

  
  <path fill="#1B3A6B" d="M855,432 H1047 A5,5 0 0 1 1052,437 V467 A5,5 0 0 1 1047,472 H855 A5,5 0 0 1 850,467 V437 A5,5 0 0 1 855,432 Z" />
  <text x="951" y="448" text-anchor="middle" font-family="Inter, Helvetica Neue, Arial, sans-serif" font-size="11" font-weight="700" fill="#FFFFFF">PT HOLDING (Induk)</text>
  <text x="951" y="464" text-anchor="middle" font-family="Inter, Helvetica Neue, Arial, sans-serif" font-size="10" fill="#A8C4E8">Manajemen, Brand, IP, Funding</text>

  
  <line x1="790" y1="472" x2="790" y2="492" stroke="#2C5282" stroke-width="1.5" />
  <line x1="951" y1="472" x2="951" y2="492" stroke="#2C5282" stroke-width="1.5" />
  <line x1="1112" y1="472" x2="1112" y2="492" stroke="#2C5282" stroke-width="1.5" />
  <line x1="790" y1="492" x2="1112" y2="492" stroke="#2C5282" stroke-width="1.5" />

  
  <path fill="#2C5282" d="M655,492 H789 A3,3 0 0 1 792,495 V511 A3,3 0 0 1 789,514 H655 A3,3 0 0 1 652,511 V495 A3,3 0 0 1 655,492 Z" />
  <text x="722" y="507" text-anchor="middle" font-family="Inter, Helvetica Neue, Arial, sans-serif" font-size="10" font-weight="600" fill="#FFFFFF">PT SPPG-1 | 22%</text>

  <path fill="#4A90D9" d="M815,492 H949 A3,3 0 0 1 952,495 V511 A3,3 0 0 1 949,514 H815 A3,3 0 0 1 812,511 V495 A3,3 0 0 1 815,492 Z" />
  <text x="882" y="507" text-anchor="middle" font-family="Inter, Helvetica Neue, Arial, sans-serif" font-size="10" font-weight="600" fill="#FFFFFF">PT SPPG-2 | 22%</text>

  <path fill="#2C5282" d="M975,492 H1109 A3,3 0 0 1 1112,495 V511 A3,3 0 0 1 1109,514 H975 A3,3 0 0 1 972,511 V495 A3,3 0 0 1 975,492 Z" />
  <text x="1042" y="507" text-anchor="middle" font-family="Inter, Helvetica Neue, Arial, sans-serif" font-size="10" font-weight="600" fill="#FFFFFF">PT SPPG-3 | 22%</text>

  
  <text x="951" y="522" text-anchor="middle" font-family="Inter, Helvetica Neue, Arial, sans-serif" font-size="10" fill="#D4A017">Dividen antar PT dalam negeri exempt jika kepemilikan ≥25% (Pasal 4(3)f UU PPh)</text>

  
  <path fill="#FFFBEB" stroke="#D4A017" stroke-width="1" d="M646,530 H1256 A4,4 0 0 1 1260,534 V624 A4,4 0 0 1 1256,628 H646 A4,4 0 0 1 642,624 V534 A4,4 0 0 1 646,530 Z" />
  <text x="660" y="550" font-family="Inter, Helvetica Neue, Arial, sans-serif" font-size="12" font-weight="700" fill="#D4A017">Tax Benefits Struktur Holding:</text>
  <path fill="#D4A017" d="M661,558 H665 A1,1 0 0 1 666,559 V563 A1,1 0 0 1 665,564 H661 A1,1 0 0 1 660,563 V559 A1,1 0 0 1 661,558 Z" />
  <text x="674" y="567" font-family="Inter, Helvetica Neue, Arial, sans-serif" font-size="11" fill="#1A202C">Konsolidasi rugi-laba antar SPPG (jika satu rugi, kurangi laba SPPG lain)</text>
  <path fill="#D4A017" d="M661,574 H665 A1,1 0 0 1 666,575 V579 A1,1 0 0 1 665,580 H661 A1,1 0 0 1 660,579 V575 A1,1 0 0 1 661,574 Z" />
  <text x="674" y="583" font-family="Inter, Helvetica Neue, Arial, sans-serif" font-size="11" fill="#1A202C">Brand management fee antar perusahaan terafiliasi — deductible expense per SPPG</text>
  <path fill="#D4A017" d="M661,590 H665 A1,1 0 0 1 666,591 V595 A1,1 0 0 1 665,596 H661 A1,1 0 0 1 660,595 V591 A1,1 0 0 1 661,590 Z" />
  <text x="674" y="599" font-family="Inter, Helvetica Neue, Arial, sans-serif" font-size="11" fill="#1A202C">Centralized treasury → optimasi cash &amp; pajak — satu entitas kelola likuiditas semua SPPG</text>
  <path fill="#C53030" d="M661,606 H665 A1,1 0 0 1 666,607 V611 A1,1 0 0 1 665,612 H661 A1,1 0 0 1 660,611 V607 A1,1 0 0 1 661,606 Z" />
  <text x="674" y="615" font-family="Inter, Helvetica Neue, Arial, sans-serif" font-size="11" fill="#C53030">CAUTION: PMK 172/2023 TP-Doc wajib untuk transaksi afiliasi omzet &gt; Rp 50 M</text>

  
  <path fill="#1B3A6B" fill-opacity="0.08" stroke="#1B3A6B" stroke-width="1" stroke-opacity="0.3" d="M24,540 H614 A4,4 0 0 1 618,544 V624 A4,4 0 0 1 614,628 H24 A4,4 0 0 1 20,624 V544 A4,4 0 0 1 24,540 Z" />
  <text x="319" y="562" text-anchor="middle" font-family="Inter, Helvetica Neue, Arial, sans-serif" font-size="13" font-weight="700" fill="#1B3A6B">Optimasi Pajak via UU HPP (Dividen Reinvestment)</text>
  <text x="35" y="582" font-family="Inter, Helvetica Neue, Arial, sans-serif" font-size="12" fill="#4A5568">Pasal 4(3)f UU PPh (post-HPP): dividen dari WP OP dan WP Badan</text>
  <text x="35" y="600" font-family="Inter, Helvetica Neue, Arial, sans-serif" font-size="12" fill="#4A5568">dalam negeri EXEMPT jika diinvestasikan kembali di Indonesia minimal 3 tahun</text>
  <text x="35" y="618" font-family="Inter, Helvetica Neue, Arial, sans-serif" font-size="12" font-weight="700" fill="#276749">(PMK 18/PMK.03/2021) → ETR tetap di 22%, bukan 29,8%.</text>

  <rect x="0" y="693" width="1280" height="27" fill="#1B3A6B" />
  <text x="640" y="710" text-anchor="middle" font-family="Inter, Helvetica Neue, Arial, sans-serif" font-size="10" fill="#A8C4E8">Analisis Pajak &amp; Tax Management MBG 2026  –  Confidential Tax Planning</text>
  <text x="1250" y="710" text-anchor="end" font-family="Inter, Helvetica Neue, Arial, sans-serif" font-size="10" fill="#D4A017">10 / 15</text>
</svg>